<svg class="css-1j8o68f" viewBox="0 0 254.688 174.63" height="303.328" width="442.386"><defs><linearGradient id="a"><stop offset="0" stop-color="#b88746"></stop><stop offset="1" stop-color="#fdf5a6"></stop></linearGradient></defs><g fill="#31444d" xmlns="http://www.w3.org/2000/svg"><path d="M222.612 26.406c-9.452-2.916-79.356-14.612-95.25-15.241-15.897.629-85.796 12.325-95.252 15.241-.342 19.49-19.116 60.907-19.116 60.907s18.776 41.418 19.116 60.909c9.456 2.915 79.355 14.612 95.251 15.242 15.895-.63 85.799-12.328 95.25-15.242.342-19.49 19.117-60.909 19.117-60.909s-18.775-41.417-19.116-60.907z"></path><path d="M253.119 83.845c-5.262-11.582-18.979-45-19.248-60.351l-.106-5.74-4.97-1.536C219.252 13.276 144.818.689 127.616.013L127.364 0l-.264.013C109.879.69 35.462 13.278 25.93 16.22l-4.978 1.535-.102 5.74C20.588 38.78 6.87 72.238 1.606 83.84L.03 87.316l.001.002-.03.068.205.317 1.401 3.08c5.264 11.605 18.982 45.066 19.246 60.349l.1 5.74 4.978 1.537c9.534 2.941 83.951 15.527 101.16 16.205l.274.015.24-.015c17.219-.676 91.651-13.264 101.19-16.206l4.97-1.535.106-5.741c.268-15.346 13.984-48.767 19.248-60.352l1.569-3.467-1.568-3.468zm-7.215 11.43c-5.356 12.682-16.54 40.884-16.808 55.762l-.029 1.931-1.585.49c-9.417 2.9-83.007 15.334-100.04 16.01l-.06.002-.094-.001c-17.044-.677-90.632-13.11-100.048-16.01l-1.587-.49-.032-1.934c-.27-15.361-12.196-44.954-17.311-56.965a301.645 301.645 0 0 0-2.425-5.562l-.543-1.195.54-1.19c.088-.19 1.05-2.333 2.426-5.565 5.116-12.01 17.042-41.605 17.311-56.965l.033-1.933 1.586-.49c9.426-2.902 83.016-15.335 100.05-16.01l.038-.004.104.003c17.034.676 90.628 13.108 100.052 16.01l1.585.49.029 1.935c.266 14.873 11.452 43.076 16.808 55.759h-.009l.514 1.206a291.444 291.444 0 0 0 2.425 5.56l.544 1.196-.544 1.192c-.083.178-1.028 2.29-2.425 5.565l-.507 1.206h.002z"></path></g><g fill="#fff"><path d="M131.563 70.136c.047 0 .093.046.14.046.187 0 .373-.14.467-.327l1.167-3.267c.093-.234-.047-.514-.28-.607-.234-.093-.514.047-.607.28l-1.167 3.268a.467.467 0 0 0 .28.607zm-1.12-7.05-3.081 1.448c-.234.093-.327.42-.234.653.094.187.234.28.42.28.047 0 .14 0 .187-.046l3.081-1.447c.233-.094.327-.42.233-.654-.093-.233-.373-.326-.606-.233zm1.073-3.08c.094-.233-.046-.513-.28-.607l-3.22-1.167c-.234-.093-.514.047-.608.28-.093.234.047.514.28.607l3.221 1.167c.047 0 .094.047.187.047.187 0 .327-.14.42-.327zm2.428-1.96c.046 0 .14 0 .186-.047.234-.094.327-.42.234-.654l-1.447-3.127c-.094-.234-.42-.327-.654-.234-.187.094-.28.42-.187.654l1.447 3.127c.094.14.234.28.42.28zm3.687.42c.187 0 .374-.14.467-.327l1.167-3.268c.093-.233-.047-.513-.28-.607-.233-.093-.513.047-.607.28l-1.167 3.268c-.093.233.047.514.28.607 0 .047.047.047.14.047zm2.241 2.94c.047 0 .14 0 .187-.046l3.08-1.447c.234-.094.327-.42.234-.654-.093-.233-.42-.327-.654-.233l-3.08 1.447c-.234.093-.327.42-.234.653.14.14.327.28.467.28z" xmlns="http://www.w3.org/2000/svg"></path><path d="M152.849 48.15h-40.472c-1.4-6.583-5.228-7.003-5.554-7.05h-2.941c-.467-1.12-1.54-2.1-2.848-2.1C99.354 39 98 40.354 98 42.034s1.354 3.081 3.034 3.081c1.307 0 2.38-1.027 2.848-2.147h2.754c.093 0 2.66.793 3.64 6.162 1.261 7.142 4.529 25.067 4.529 25.067 0 2.007 1.213 5.648 5.695 5.648h17.271l-.7-1.82h-16.618c-1.914 0-2.754-1.4-3.127-2.381 3.034-.187 11.343-.747 18.672-1.26l-.654-2.288c-7.469.514-15.731 1.074-18.392 1.26-.607-3.034-2.894-15.917-4.154-22.92h39.724c1.82 0 3.128 1.494 2.894 3.315l-1.68 13.724c0 .046-.047.327-.233.7l2.053 1.027c.374-.794.467-1.354.467-1.447l1.727-14.097c.327-3.035-1.82-5.509-4.901-5.509z" xmlns="http://www.w3.org/2000/svg"></path><path d="m148.274 73.076 3.921-1.54c.374-.14.607-.467.607-.84s-.186-.747-.513-.934l-16.525-8.356c-.327-.186-.747-.14-1.074.14a.937.937 0 0 0-.28 1.027l5.602 18.066c.093.373.467.653.84.7.374.046.747-.187.934-.514l2.24-4.294 4.809 6.395c.14.187.373.327.653.373h.14c.187 0 .42-.046.607-.186l2.94-2.288c.187-.14.328-.373.374-.653.047-.28-.046-.514-.187-.747l-5.088-6.349zm1.494 7.89-5.135-6.816a.974.974 0 0 0-.747-.373h-.093a1.146 1.146 0 0 0-.793.513l-1.868 3.594-4.248-13.677 12.557 6.349-3.08 1.213a.883.883 0 0 0-.56.654c-.094.28 0 .607.186.84l5.228 6.629-1.447 1.073zm-5.461 2.94c-2.194 0-4.015 1.82-4.015 4.061 0 2.241 1.82 4.061 4.015 4.061 2.194 0 4.014-1.82 4.014-4.06 0-2.241-1.82-4.062-4.014-4.062zm0 6.162c-1.167 0-2.101-.934-2.101-2.1s.934-2.101 2.1-2.101 2.101.933 2.101 2.1c0 1.12-.933 2.1-2.1 2.1zM121.2 83.906c-2.194 0-4.015 1.82-4.015 4.061 0 2.241 1.821 4.061 4.015 4.061s4.014-1.82 4.014-4.06c0-2.241-1.82-4.062-4.014-4.062zm0 6.162c-1.167 0-2.1-.934-2.1-2.1s.933-2.101 2.1-2.101 2.1.933 2.1 2.1c0 1.12-.933 2.1-2.1 2.1z" xmlns="http://www.w3.org/2000/svg"></path></g><path fill="url(#a)" transform="translate(45.226 112.766) scale(.3873)" d="M23.402 33.09c-1.46.443-2.996.94-4.54 1.233-.193.524-.378 1.052-.563 1.579 2.989 2.41 6.249 4.52 9.503 6.367 7.047 4.002 15.083 7.116 23.314 6.517 1.085-.08.872 1.233.552 1.815-.512.933-1.522 1.642-2.583 1.72-8.45.614-16.814-2.55-24.052-6.66-2.772-1.575-5.56-3.332-8.194-5.293a104.986 104.986 0 0 0-2.103 8.08c-.375 1.722-3.883-.971-3.532-2.587a103.825 103.825 0 0 1 2.17-8.285 42.598 42.598 0 0 1-4.56-4.626c-1.127-1.343 2.24-4.308 3.334-3.002.193.23.392.455.591.681.854.367 1.843.452 2.888.364a105.972 105.972 0 0 1 11.266-21.68c.896-1.326 4.178 1.685 3.172 3.172a102.39 102.39 0 0 0-9.362 17.213c.938-.336 1.81-.672 2.556-.921 3.446-1.155 6.826-2.526 10.058-4.193 5.686-2.931 10.93-6.883 14.818-12.007 1.541-2.03 4.458-6.698 1.12-8.449-2.456-1.286-5.589-1.106-8.262-.936-6.957.443-13.822 2.22-20.17 5.091a56.845 56.845 0 0 0-9.24 5.252c-1.87 1.312-7.157 4.607-5.946 7.546 1.118 2.711-2.433 1.635-3.135-.067-1.894-4.595 1.925-7.79 5.348-10.254a60.348 60.348 0 0 1 12.278-6.825C27.355.963 36.202-1.314 44.078-.418c3.204.365 6.432 1.525 8.498 4.126 2.484 3.128 2.078 6.813.079 10.087C48.579 20.47 41.67 25.309 34.762 28.69c-3.652 1.787-7.473 3.219-11.36 4.4zm91.6-.935c.16.862-.302 1.557-1.257 1.257-3.711-1.169-7.611-1.438-11.501-1.434a116.55 116.55 0 0 0-2.236 5.657 84.168 84.168 0 0 0-2.092 6.544c-.286 1.043-.604 2.101-.789 3.167-.06.348-.015.92-.116 1.258-.003.104.003.206.013.308.666.435 1.263 1.076 1.399 1.813.154.832-.304 1.598-1.256 1.256-4.13-1.486-4.054-5.396-3.15-8.987.935-3.722 2.178-7.356 3.594-10.922-5.239.17-10.472.65-15.648 1.47-1.247.198-2.49.415-3.729.648a142.538 142.538 0 0 0-15.036 25.027c-.82 1.747-4.216-1.127-3.531-2.586a145.972 145.972 0 0 1 12.1-21.045 132.347 132.347 0 0 0-20.104 6.617c-1.512.635-4.333-2.798-2.587-3.531a131.731 131.731 0 0 1 26.203-7.94 141.711 141.711 0 0 1 5.81-7.196A141.397 141.397 0 0 1 94.884 9.633C99.93 5.207 105.303.66 111.578-1.9c1.038-.425 2.515.971 2.86 1.799 1.696 4.056-1.274 8.532-2.95 12.189-1.923 4.2-3.968 8.344-5.933 12.525a261.133 261.133 0 0 0-1.762 3.825c3.037.154 6.052.555 8.967 1.472.934.295 2.056 1.231 2.243 2.244zm-15.848-3.791c2.028-4.697 4.279-9.292 6.48-13.909a301.04 301.04 0 0 0 3.074-6.612 164.644 164.644 0 0 0 1.593-3.672c.109-.259.246-.556.387-.872-4.804 2.641-9.078 6.357-13.14 9.953a141.414 141.414 0 0 0-13.287 13.456c-.838.97-1.658 1.955-2.469 2.948a131.692 131.692 0 0 1 17.362-1.292zm42.812 4.726c-1.46.443-2.996.94-4.54 1.233-.193.524-.378 1.052-.563 1.579 2.989 2.41 6.249 4.52 9.503 6.367 7.047 4.002 15.083 7.116 23.314 6.517 1.085-.08.872 1.233.552 1.815-.512.933-1.522 1.642-2.583 1.72-8.45.614-16.814-2.55-24.052-6.66-2.772-1.575-5.56-3.332-8.194-5.293a104.986 104.986 0 0 0-2.103 8.08c-.375 1.722-3.883-.971-3.532-2.587a103.825 103.825 0 0 1 2.17-8.285 42.598 42.598 0 0 1-4.56-4.626c-1.127-1.343 2.24-4.308 3.334-3.002.193.23.392.455.591.681.854.367 1.843.452 2.888.364a105.972 105.972 0 0 1 11.266-21.68c.896-1.326 4.178 1.685 3.172 3.172a102.39 102.39 0 0 0-9.362 17.213c.938-.336 1.81-.672 2.556-.921 3.446-1.155 6.826-2.526 10.058-4.193 5.686-2.931 10.93-6.883 14.818-12.007 1.541-2.03 4.458-6.698 1.12-8.449-2.456-1.286-5.589-1.106-8.262-.936-6.957.443-13.822 2.22-20.17 5.091a56.845 56.845 0 0 0-9.24 5.252c-1.87 1.312-7.157 4.607-5.946 7.546 1.118 2.711-2.433 1.635-3.135-.067-1.894-4.595 1.925-7.79 5.348-10.254a60.348 60.348 0 0 1 12.278-6.825c7.227-2.972 16.074-5.249 23.95-4.353 3.204.365 6.432 1.525 8.498 4.126 2.484 3.128 2.078 6.813.079 10.087-4.076 6.675-10.985 11.514-17.893 14.895-3.652 1.787-7.473 3.219-11.36 4.4zm50.048 9.14c1.505-1 4.491 2.296 3.172 3.172-4.705 3.13-10.12 5.45-15.783 6.043-4.371.457-9.355-.891-11.496-5.083-2.543-4.984 1.39-10.883 3.993-15.033a55.9 55.9 0 0 1 7.495-9.465 7.135 7.135 0 0 1-3.12-1.936c-2.568-2.68-1.98-6.006-.22-8.94 3.353-5.593 9.557-8.935 16.048-8.892 1.578.01 4.005 3.65 1.843 3.636a16.85 16.85 0 0 0-11.526 4.477c-1.596 1.47-3.005 3.263-3.827 5.285-.549 1.35-.892 2.7.781 3.174 1.257.357 3.007-.304 4.237-.637 1.228-.333 4.241 2.2 2.88 3.352-3.51 2.97-6.664 6.323-9.356 10.054-2.494 3.455-5.323 7.66-6.26 11.883-.505 2.277.096 3.773 2.37 4.315 1.846.44 3.808.302 5.658-.038 4.676-.862 9.159-2.737 13.112-5.366z"></path><path fill="#fff" d="M149.68 114.488c.62-.178 1.675 1.175 1.002 1.367-5.733 1.643-11.016 4.664-15.372 8.692.13 2.931 1.753 5.991 4.522 7.15.668.28-.486 1.56-1.072 1.314-2.814-1.179-4.519-4.13-4.846-7.108a37.873 37.873 0 0 0-4.315 5.292 458.361 458.361 0 0 1-1.92 3.18c-.394.648-1.659-.46-1.368-1.003a39.4 39.4 0 0 1 2.053-3.403c2.285-3.842 4.454-7.76 6.06-11.937.257-.667.521-1.34.727-2.025.077-.258.149-.518.15-.79a1.182 1.182 0 0 0-.038-.37c.054.27-.043.41-.292.42-.45.324-1.178.467-1.688.703a23.798 23.798 0 0 0-1.856.958c-2.306 1.323-4.36 3.055-6.103 5.058-.43.495-1.676-.715-1.229-1.228a24.599 24.599 0 0 1 6.218-5.132 23.73 23.73 0 0 1 3.169-1.539c.975-.387 1.89-.556 2.663.314.608.684.657 1.579.427 2.432-.324 1.201-.834 2.384-1.313 3.53a59.581 59.581 0 0 1-1.462 3.214c4.478-4.228 9.956-7.392 15.882-9.09zm17.482 10.732c.062.333-.117.603-.487.486-1.437-.452-2.947-.556-4.454-.555a45.14 45.14 0 0 0-.866 2.191 32.598 32.598 0 0 0-.81 2.535c-.111.403-.234.813-.306 1.226-.023.135-.006.356-.045.487a.94.94 0 0 0 .005.12c.258.168.49.416.542.702.06.322-.118.619-.486.486-1.6-.575-1.57-2.09-1.22-3.48a33.79 33.79 0 0 1 1.392-4.23 48.88 48.88 0 0 0-7.505.82 55.205 55.205 0 0 0-5.824 9.693c-.317.676-1.632-.437-1.367-1.002a56.535 56.535 0 0 1 4.686-8.15 51.258 51.258 0 0 0-7.786 2.562c-.586.246-1.678-1.083-1.002-1.367a51.02 51.02 0 0 1 10.148-3.075 54.885 54.885 0 0 1 2.25-2.788 54.763 54.763 0 0 1 5.343-5.384c1.955-1.714 4.036-3.475 6.466-4.467.402-.164.974.376 1.108.697.657 1.57-.494 3.304-1.143 4.72-.745 1.627-1.537 3.232-2.298 4.852a101.137 101.137 0 0 0-.682 1.481c1.176.06 2.344.215 3.473.57.361.114.796.477.868.87zm-6.138-1.469c.786-1.819 1.657-3.598 2.51-5.387a116.593 116.593 0 0 0 1.19-2.56 63.767 63.767 0 0 0 .617-1.423c.043-.1.096-.215.15-.337-1.86 1.023-3.516 2.462-5.089 3.854a54.77 54.77 0 0 0-5.146 5.212c-.324.376-.642.757-.956 1.142a51.004 51.004 0 0 1 6.724-.5zm16.581 1.83c-.565.172-1.16.365-1.758.478-.075.203-.146.408-.218.612 1.157.933 2.42 1.75 3.68 2.466 2.73 1.55 5.842 2.756 9.03 2.524.42-.031.338.477.214.703-.199.361-.59.636-1 .666-3.273.238-6.513-.988-9.316-2.58a30.808 30.808 0 0 1-3.174-2.05 40.661 40.661 0 0 0-.814 3.13c-.145.667-1.504-.376-1.368-1.002a40.211 40.211 0 0 1 .84-3.209 16.498 16.498 0 0 1-1.766-1.791c-.436-.52.868-1.669 1.292-1.163.074.089.151.176.228.264.331.142.714.175 1.119.14a41.043 41.043 0 0 1 4.363-8.396c.347-.514 1.618.653 1.229 1.228a39.656 39.656 0 0 0-3.626 6.667c.363-.13.7-.26.99-.357a27.666 27.666 0 0 0 3.895-1.624c2.203-1.135 4.234-2.665 5.74-4.65.596-.786 1.726-2.594.433-3.272-.951-.498-2.165-.429-3.2-.363-2.694.172-5.353.86-7.812 1.972a22.016 22.016 0 0 0-3.578 2.034c-.725.508-2.772 1.784-2.303 2.923.433 1.05-.942.633-1.214-.026-.734-1.78.745-3.017 2.071-3.972a23.373 23.373 0 0 1 4.755-2.643c2.8-1.151 6.226-2.033 9.276-1.686 1.241.141 2.491.59 3.291 1.598.962 1.212.805 2.639.03 3.907-1.578 2.585-4.254 4.46-6.929 5.769a29.525 29.525 0 0 1-4.4 1.704zm30.775-10.366c.664.267 1.08 1.638.026 1.214-2.985-1.198-6.532-.879-9.682-.832-.612.01-1.225.023-1.837.039.286.264.484.63.356.879a47.98 47.98 0 0 0-4.894 15.538c-.115.862-1.488-.113-1.408-.713a48.716 48.716 0 0 1 4.857-15.674 171.733 171.733 0 0 0-7.411.404c-.61.047-1.568-1.343-.714-1.408a169.462 169.462 0 0 1 10.965-.482c3.263-.037 6.658-.204 9.742 1.034z"></path></svg>